
<svg xmlns="http://www.w3.org/2000/svg" viewBox="0 0 400 300">
    <defs>
        <linearGradient id="bgGrad" x1="0%" y1="0%" x2="100%" y2="100%">
            <stop offset="0%" style="stop-color:#f7f7f7;stop-opacity:1" />
            <stop offset="100%" style="stop-color:#efefef;stop-opacity:1" />
        </linearGradient>
    </defs>

    <!-- Background -->
    <rect width="400" height="300" fill="url(#bgGrad)" rx="8"/>

    <!-- Dashed border -->
    <rect x="16" y="16" width="368" height="268" rx="6"
          fill="none" stroke="#d0d0d0" stroke-width="1.5" stroke-dasharray="8 5"/>

    <!-- Broken image icon -->
    <g transform="translate(150, 90)">

        <path d="M 89.1 20.628 c -3.618 -7.425 -14.04 -13.5 -26.163 -9.963 A 31.185 31.185 90 0 0 49.113 20.25 a 45.603 45.603 90 0 0 -6.696 12.312 L 60.129 40.5 L 45.09 54.702 L 51.3 62.1 l -4.239 3.618 l -9.72 -11.394 l 12.798 -12.177 l -14.688 -6.507 a 52.623 52.623 90 0 1 6.21 -14.85 a 39.879 39.879 90 0 1 2.862 -4.158 l 0.162 0 a 26.082 26.082 90 0 0 -10.503 -5.886 C 22.113 7.182 11.718 13.203 8.1 20.628 c -5.076 10.395 -2.97 22.086 6.264 34.749 C 21.6 65.286 31.941 75.33 46.953 86.994 a 2.7 2.7 90 0 0 3.321 0 c 14.985 -11.637 25.353 -21.6 32.589 -31.617 C 92.07 42.714 94.176 31.023 89.1 20.628 Z"/>

    </g>

    <!-- Label -->
    <text x="200" y="214"
          font-family="'Georgia', 'Times New Roman', serif"
          font-size="12"
          letter-spacing="2"
          fill="#b0b0b0"
          text-anchor="middle"
          font-weight="400">SORRY, {ERR_PROVENANCE} ERROR</text>

    <!-- Subtle error code -->
    <text x="200" y="234"
          font-family="'Georgia', 'Times New Roman', serif"
          font-size="11"
          letter-spacing="2"
          fill="#b0b0b0"
          text-anchor="middle"
          >{ERR_TITLE}</text>
</svg>